<?xml version="1.0" encoding="UTF-8" standalone="no"?>
<svg width="800" height="600" viewBox="0 0 800 600" xmlns="http://www.w3.org/2000/svg">
    <!-- Outer boundary with rounded corners -->
    <path d="M 50 50 L 750 50 Q 770 50 770 70 L 770 530 Q 770 550 750 550 L 50 550 Q 30 550 30 530 L 30 70 Q 30 50 50 50 Z" 
          fill="none" 
          stroke="white" 
          stroke-width="4"
          data-wall-type="STANDARD"
          data-force="0.5" />
    
    <!-- Golden Path for Orbie to follow -->
    <path d="M 100 300 C 200 100, 600 100, 700 300 C 600 500, 200 500, 100 300 Z" 
          fill="none" 
          stroke="gold" 
          stroke-width="4"
          data-wall-type="GOLDEN_PATH"
          data-force="0.4" />
    
    <!-- Ghost wall that only blocks zots -->
    <path d="M 250 200 Q 400 150, 550 200 Q 600 350, 550 400 Q 400 450, 250 400 Q 200 350, 250 200 Z"
          fill="none"
          stroke="rgba(100, 150, 255, 0.7)"
          stroke-width="3"
          data-wall-type="GHOST_WALL"
          data-force="0.3" />
    
    <!-- Orbie-only barrier -->
    <path d="M 300 150 A 150 100 0 0 1 500 150"
          fill="none"
          stroke="#ff66aa"
          stroke-width="3"
          data-wall-type="ORBIE_ONLY"
          data-force="0.6" />
    
    <!-- Energy field -->
    <path d="M 300 450 A 150 100 0 0 0 500 450"
          fill="none"
          stroke="#33ff99"
          stroke-width="3"
          data-wall-type="ENERGY_FIELD"
          data-force="0.2" />
    
    <!-- Standard circular obstacle -->
    <path d="M 400 300 m -50 0 a 50 50 0 1 0 100 0 a 50 50 0 1 0 -100 0 Z"
          fill="none"
          stroke="white"
          stroke-width="4"
          data-wall-type="STANDARD"
          data-force="0.7" />
</svg> 